<svg width="192" height="41" viewBox="0 0 192 41" fill="none" xmlns="http://www.w3.org/2000/svg">
<g clip-path="url(#clip0_449_35671)">
<path d="M0 27.6567H10.2802C10.3286 30.6576 12.8724 32.6076 17.3382 32.6076C20.8672 32.6076 23.1485 31.3582 23.1485 29.1552C23.1485 26.5552 20.0879 25.9519 16.2843 25.4537C9.90061 24.6013 0.246303 23.854 0.246303 14.645C0.246303 7.54164 6.57753 2.93713 16.3974 2.93713C26.2172 2.93713 32.8473 8.04374 32.8473 15.4623H22.9426C22.9426 12.3096 20.5199 10.5075 16.7648 10.5075C13.2883 10.5075 11.2129 11.9087 11.2129 13.9132C11.2129 16.6144 14.8994 17.0621 19.2077 17.6653C25.5389 18.5645 34.103 19.8645 34.103 28.5208C34.103 35.6241 27.3034 40.2286 16.9223 40.2286C6.75115 40.2131 0 35.0597 0 27.6567Z" fill="#0A1A5C"/>
<path d="M36.9092 26.5552C36.9092 18.0973 42.7721 12.9946 52.063 12.9946C61.2489 12.9946 67.1683 18.1479 67.1683 26.5552C67.1683 34.9624 61.2489 40.1118 52.063 40.1118C42.8771 40.1118 36.9092 34.9585 36.9092 26.5552ZM57.4615 26.5552C57.4615 23.2001 55.2286 20.8492 52.063 20.8492C48.8974 20.8492 46.6645 23.1845 46.6645 26.5552C46.6645 29.9258 48.8449 32.2573 52.063 32.2573C55.2811 32.2573 57.4776 29.9064 57.4776 26.5552H57.4615Z" fill="#0A1A5C"/>
<path d="M70.5964 2.13916H80.287V39.4618H70.5964V2.13916Z" fill="#0A1A5C"/>
<path d="M84.3531 5.68891C84.3531 2.68799 86.6869 0.586182 89.8525 0.586182C93.1231 0.586182 95.4085 2.68799 95.4085 5.68891C95.4085 8.68982 93.1231 10.8422 89.8525 10.8422C86.6869 10.8422 84.3531 8.69371 84.3531 5.68891ZM85.0274 13.6446H94.718V39.4618H85.0274V13.6446Z" fill="#0A1A5C"/>
<path d="M101.271 30.1553V20.3002H97.8553V13.6445H101.643L103.407 5.59143H111.039V13.6445H116.643V20.3002H111.031V29.7038C111.031 31.7044 112.274 33.0589 114.196 33.0589C115.072 33.033 115.943 32.9156 116.792 32.7086V39.2048C114.896 39.7912 112.917 40.0944 110.926 40.1039C105.063 40.1116 101.271 36.1104 101.271 30.1553Z" fill="#0A1A5C"/>
<path d="M120.374 13.6444H130.065V39.4616H120.374V13.6444Z" fill="#0A1A5C"/>
<path d="M133.715 26.5552C133.715 18.2491 139.683 12.9946 148.61 12.9946C156.282 12.9946 161.898 16.8479 162.742 23.3013L153.75 24.4144C153.5 23.3176 152.87 22.3353 151.965 21.6282C151.06 20.9211 149.933 20.5312 148.768 20.5222C145.703 20.5222 143.422 23.0249 143.422 26.5785C143.422 30.1321 145.65 32.6309 148.715 32.6309C149.885 32.639 151.022 32.2611 151.938 31.5602C152.854 30.8593 153.493 29.8774 153.75 28.7776L162.726 29.8285C161.846 36.2819 156.238 40.1352 148.594 40.1352C139.848 40.1118 133.715 34.76 133.715 26.5552Z" fill="#0A1A5C"/>
<path d="M165.169 30.9572H173.422C173.422 33.1563 175.397 34.6081 178.457 34.6081C180.743 34.6081 182.35 33.6584 182.35 32.1054C182.35 30.2566 180.068 29.9569 177.262 29.7039C172.417 29.2563 165.327 28.8554 165.327 21.7015C165.327 16.2524 170.362 12.8428 177.989 12.8428C185.41 12.8428 190.91 16.1979 190.91 21.4991H182.297C182.245 19.7009 180.48 18.4982 177.989 18.4982C175.809 18.4982 174.254 19.4479 174.254 20.8335C174.254 22.7796 177.42 22.8847 181.001 23.2856C185.879 23.7877 192.004 24.9359 192.004 31.0429C192.004 36.7956 186.755 40.2986 178.251 40.2986C170.204 40.3142 165.169 36.7605 165.169 30.9572Z" fill="#0A1A5C"/>
<path d="M129.031 2.0691H130.093V10.3751H120.402C120.403 9.28352 120.626 8.20271 121.06 7.19445C121.494 6.18618 122.13 5.27023 122.931 4.49889C123.733 3.72755 124.684 3.11595 125.73 2.69904C126.777 2.28213 127.899 2.06807 129.031 2.0691Z" fill="#12D9A3"/>
</g>
<defs>
<clipPath id="clip0_449_35671">
<rect width="192" height="39.7241" fill="white" transform="translate(0 0.586182)"/>
</clipPath>
</defs>
</svg>
